<mxfile host="app.diagrams.net" modified="2022-09-25T16:40:30.516Z" agent="5.0 (Macintosh; Intel Mac OS X 10_15_7) AppleWebKit/537.36 (KHTML, like Gecko) Chrome/105.0.0.0 Safari/537.36" etag="JDUWJodV7e4EYAruX7yU" version="20.3.6" type="github">
  <diagram name="Page-1" id="12e1b939-464a-85fe-373e-61e167be1490">
    <mxGraphModel dx="1694" dy="894" grid="1" gridSize="10" guides="1" tooltips="1" connect="1" arrows="1" fold="1" page="1" pageScale="1.5" pageWidth="1169" pageHeight="826" background="none" math="0" shadow="0">
      <root>
        <mxCell id="0" />
        <mxCell id="1" parent="0" />
        <mxCell id="VXZKSgoOHZvKYw1qHndZ-1" value="&lt;p style=&quot;font-size: medium; margin: 0px; line-height: 1px;&quot; align=&quot;center&quot;&gt;&lt;span style=&quot;font-family: &amp;quot;.Times LT MM&amp;quot;; font-size: 16pt; color: rgb(69, 69, 69);&quot;&gt;4월&lt;/span&gt;&lt;/p&gt;&lt;p style=&quot;font-size: medium; margin: 0px; line-height: 1px;&quot; align=&quot;center&quot;&gt;&lt;span style=&quot;font-family: &amp;quot;.Times LT MM&amp;quot;; font-size: 16pt; color: rgb(69, 69, 69);&quot;&gt;&lt;br&gt;&lt;/span&gt;&lt;/p&gt;&lt;p style=&quot;font-size: medium; margin: 0px; line-height: 1px;&quot; align=&quot;center&quot;&gt;&lt;span style=&quot;font-family: &amp;quot;.Times LT MM&amp;quot;; font-size: 16pt; color: rgb(69, 69, 69);&quot;&gt;&lt;br&gt;&lt;/span&gt;&lt;/p&gt;&lt;p style=&quot;font-size: medium; margin: 0px; line-height: 1px;&quot; align=&quot;center&quot;&gt;&lt;span style=&quot;font-family: &amp;quot;.Times LT MM&amp;quot;; font-size: 16pt; color: rgb(69, 69, 69);&quot;&gt;&lt;br&gt;&lt;/span&gt;&lt;/p&gt;&lt;p style=&quot;font-size: medium; margin: 0px; line-height: 1px;&quot; align=&quot;center&quot;&gt;&lt;span style=&quot;font-family: &amp;quot;.Times LT MM&amp;quot;; font-size: 16pt; color: rgb(69, 69, 69);&quot;&gt;&lt;br&gt;&lt;/span&gt;&lt;/p&gt;&lt;p style=&quot;font-size: medium; margin: 0px; line-height: 1px;&quot; align=&quot;center&quot;&gt;&lt;span style=&quot;font-family: &amp;quot;.Times LT MM&amp;quot;; font-size: 16pt; color: rgb(69, 69, 69);&quot;&gt;&lt;br&gt;&lt;/span&gt;&lt;/p&gt;&lt;p style=&quot;font-size: medium; margin: 0px; line-height: 1px;&quot; align=&quot;center&quot;&gt;&lt;span style=&quot;font-family: &amp;quot;.Times LT MM&amp;quot;; font-size: 16pt; color: rgb(69, 69, 69);&quot;&gt;&lt;br&gt;&lt;/span&gt;&lt;/p&gt;&lt;p style=&quot;font-size: medium; margin: 0px; line-height: 1px;&quot; align=&quot;center&quot;&gt;&lt;span style=&quot;font-family: &amp;quot;.Times LT MM&amp;quot;; font-size: 16pt; color: rgb(69, 69, 69);&quot;&gt;&lt;br&gt;&lt;/span&gt;&lt;/p&gt;&lt;p style=&quot;font-size: medium; margin: 0px; line-height: 1px;&quot; align=&quot;center&quot;&gt;&lt;span style=&quot;font-family: &amp;quot;.Times LT MM&amp;quot;; font-size: 16pt; color: rgb(69, 69, 69);&quot;&gt;&lt;br&gt;&lt;/span&gt;&lt;/p&gt;&lt;p style=&quot;font-size: medium; margin: 0px; line-height: 1px;&quot; align=&quot;center&quot;&gt;&lt;span style=&quot;font-family: &amp;quot;.Times LT MM&amp;quot;; font-size: 16pt; color: rgb(69, 69, 69);&quot;&gt;&lt;br&gt;&lt;/span&gt;&lt;/p&gt;&lt;p style=&quot;font-size: medium; margin: 0px; line-height: 1px;&quot; align=&quot;center&quot;&gt;&lt;span style=&quot;color: rgb(69, 69, 69); font-family: &amp;quot;.Times LT MM&amp;quot;; font-size: 16pt; background-color: initial;&quot;&gt;라즈베리 파이를&amp;nbsp;&lt;/span&gt;&lt;/p&gt;&lt;p style=&quot;font-size: medium; margin: 0px; line-height: 1px;&quot; align=&quot;center&quot;&gt;&lt;span style=&quot;color: rgb(69, 69, 69); font-family: &amp;quot;.Times LT MM&amp;quot;; font-size: 16pt; background-color: initial;&quot;&gt;&lt;br&gt;&lt;/span&gt;&lt;/p&gt;&lt;p style=&quot;font-size: medium; margin: 0px; line-height: 1px;&quot; align=&quot;center&quot;&gt;&lt;span style=&quot;color: rgb(69, 69, 69); font-family: &amp;quot;.Times LT MM&amp;quot;; font-size: 16pt; background-color: initial;&quot;&gt;&lt;br&gt;&lt;/span&gt;&lt;/p&gt;&lt;p style=&quot;font-size: medium; margin: 0px; line-height: 1px;&quot; align=&quot;center&quot;&gt;&lt;span style=&quot;color: rgb(69, 69, 69); font-family: &amp;quot;.Times LT MM&amp;quot;; font-size: 16pt; background-color: initial;&quot;&gt;&lt;br&gt;&lt;/span&gt;&lt;/p&gt;&lt;p style=&quot;font-size: medium; margin: 0px; line-height: 1px;&quot; align=&quot;center&quot;&gt;&lt;span style=&quot;color: rgb(69, 69, 69); font-family: &amp;quot;.Times LT MM&amp;quot;; font-size: 16pt; background-color: initial;&quot;&gt;&lt;br&gt;&lt;/span&gt;&lt;/p&gt;&lt;p style=&quot;font-size: medium; margin: 0px; line-height: 1px;&quot; align=&quot;center&quot;&gt;&lt;span style=&quot;color: rgb(69, 69, 69); font-family: &amp;quot;.Times LT MM&amp;quot;; font-size: 16pt; background-color: initial;&quot;&gt;&lt;br&gt;&lt;/span&gt;&lt;/p&gt;&lt;p style=&quot;font-size: medium; margin: 0px; line-height: 1px;&quot; align=&quot;center&quot;&gt;&lt;span style=&quot;color: rgb(69, 69, 69); font-family: &amp;quot;.Times LT MM&amp;quot;; font-size: 16pt; background-color: initial;&quot;&gt;&lt;br&gt;&lt;/span&gt;&lt;/p&gt;&lt;p style=&quot;font-size: medium; margin: 0px; line-height: 1px;&quot; align=&quot;center&quot;&gt;&lt;span style=&quot;color: rgb(69, 69, 69); font-family: &amp;quot;.Times LT MM&amp;quot;; font-size: 16pt; background-color: initial;&quot;&gt;&lt;br&gt;&lt;/span&gt;&lt;/p&gt;&lt;p style=&quot;font-size: medium; margin: 0px; line-height: 1px;&quot; align=&quot;center&quot;&gt;&lt;span style=&quot;color: rgb(69, 69, 69); font-family: &amp;quot;.Times LT MM&amp;quot;; font-size: 16pt; background-color: initial;&quot;&gt;&lt;br&gt;&lt;/span&gt;&lt;/p&gt;&lt;p style=&quot;font-size: medium; margin: 0px; line-height: 1px;&quot; align=&quot;center&quot;&gt;&lt;span style=&quot;color: rgb(69, 69, 69); font-family: &amp;quot;.Times LT MM&amp;quot;; font-size: 16pt; background-color: initial;&quot;&gt;&lt;br&gt;&lt;/span&gt;&lt;/p&gt;&lt;p style=&quot;font-size: medium; margin: 0px; line-height: 1px;&quot; align=&quot;center&quot;&gt;&lt;span style=&quot;color: rgb(69, 69, 69); font-family: &amp;quot;.Times LT MM&amp;quot;; font-size: 16pt; background-color: initial;&quot;&gt;이용한 센서 구동&lt;/span&gt;&lt;br&gt;&lt;/p&gt;" style="shape=step;perimeter=stepPerimeter;whiteSpace=wrap;html=1;fixedSize=1;fillColor=#fad7ac;strokeColor=#b46504;" vertex="1" parent="1">
          <mxGeometry x="337" y="320" width="270" height="120" as="geometry" />
        </mxCell>
        <mxCell id="VXZKSgoOHZvKYw1qHndZ-5" value="&lt;span style=&quot;color: rgb(69, 69, 69); font-family: &amp;quot;.Times LT MM&amp;quot;; font-size: 21.3333px;&quot;&gt;낙상 감지 웨어러블 기기 제작을 위한 낙상 판단 학습 모델 구축&lt;/span&gt;" style="text;html=1;strokeColor=#996185;fillColor=#e6d0de;align=center;verticalAlign=middle;whiteSpace=wrap;rounded=0;gradientColor=#d5739d;" vertex="1" parent="1">
          <mxGeometry x="575" y="240" width="603" height="40" as="geometry" />
        </mxCell>
        <mxCell id="VXZKSgoOHZvKYw1qHndZ-10" value="&lt;p style=&quot;font-size: medium; margin: 0px; line-height: 1px;&quot; align=&quot;center&quot;&gt;&lt;span style=&quot;font-family: &amp;quot;.Times LT MM&amp;quot;; font-size: 16pt; color: rgb(69, 69, 69);&quot;&gt;5월&lt;/span&gt;&lt;/p&gt;&lt;p style=&quot;font-size: medium; margin: 0px; line-height: 1px;&quot; align=&quot;center&quot;&gt;&lt;span style=&quot;font-family: &amp;quot;.Times LT MM&amp;quot;; font-size: 16pt; color: rgb(69, 69, 69);&quot;&gt;&lt;br&gt;&lt;/span&gt;&lt;/p&gt;&lt;p style=&quot;font-size: medium; margin: 0px; line-height: 1px;&quot; align=&quot;center&quot;&gt;&lt;span style=&quot;font-family: &amp;quot;.Times LT MM&amp;quot;; font-size: 16pt; color: rgb(69, 69, 69);&quot;&gt;&lt;br&gt;&lt;/span&gt;&lt;/p&gt;&lt;p style=&quot;font-size: medium; margin: 0px; line-height: 1px;&quot; align=&quot;center&quot;&gt;&lt;span style=&quot;font-family: &amp;quot;.Times LT MM&amp;quot;; font-size: 16pt; color: rgb(69, 69, 69);&quot;&gt;&lt;br&gt;&lt;/span&gt;&lt;/p&gt;&lt;p style=&quot;font-size: medium; margin: 0px; line-height: 1px;&quot; align=&quot;center&quot;&gt;&lt;span style=&quot;font-family: &amp;quot;.Times LT MM&amp;quot;; font-size: 16pt; color: rgb(69, 69, 69);&quot;&gt;&lt;br&gt;&lt;/span&gt;&lt;/p&gt;&lt;p style=&quot;font-size: medium; margin: 0px; line-height: 1px;&quot; align=&quot;center&quot;&gt;&lt;span style=&quot;font-family: &amp;quot;.Times LT MM&amp;quot;; font-size: 16pt; color: rgb(69, 69, 69);&quot;&gt;&lt;br&gt;&lt;/span&gt;&lt;/p&gt;&lt;p style=&quot;font-size: medium; margin: 0px; line-height: 1px;&quot; align=&quot;center&quot;&gt;&lt;span style=&quot;font-family: &amp;quot;.Times LT MM&amp;quot;; font-size: 16pt; color: rgb(69, 69, 69);&quot;&gt;&lt;br&gt;&lt;/span&gt;&lt;/p&gt;&lt;p style=&quot;font-size: medium; margin: 0px; line-height: 1px;&quot; align=&quot;center&quot;&gt;&lt;span style=&quot;font-family: &amp;quot;.Times LT MM&amp;quot;; font-size: 16pt; color: rgb(69, 69, 69);&quot;&gt;&lt;br&gt;&lt;/span&gt;&lt;/p&gt;&lt;p style=&quot;font-size: medium; margin: 0px; line-height: 1px;&quot; align=&quot;center&quot;&gt;&lt;span style=&quot;font-family: &amp;quot;.Times LT MM&amp;quot;; font-size: 16pt; color: rgb(69, 69, 69);&quot;&gt;&lt;br&gt;&lt;/span&gt;&lt;/p&gt;&lt;p style=&quot;font-size: medium; margin: 0px; line-height: 1px;&quot; align=&quot;center&quot;&gt;&lt;span style=&quot;font-family: &amp;quot;.Times LT MM&amp;quot;; font-size: 16pt; color: rgb(69, 69, 69);&quot;&gt;&lt;br&gt;&lt;/span&gt;&lt;/p&gt;&lt;p style=&quot;font-size: medium; margin: 0px; line-height: 1px;&quot; align=&quot;center&quot;&gt;&lt;span style=&quot;font-family: &amp;quot;.Times LT MM&amp;quot;; font-size: 16pt; color: rgb(69, 69, 69);&quot;&gt;&lt;br&gt;&lt;/span&gt;&lt;/p&gt;&lt;p style=&quot;font-size: medium; margin: 0px; line-height: 1px;&quot; align=&quot;center&quot;&gt;&lt;span style=&quot;font-family: &amp;quot;.Times LT MM&amp;quot;; font-size: 16pt; color: rgb(69, 69, 69);&quot;&gt;실시간 낙상 데이터 저장 및&amp;nbsp;&lt;/span&gt;&lt;/p&gt;&lt;p style=&quot;font-size: medium; margin: 0px; line-height: 1px;&quot; align=&quot;center&quot;&gt;&lt;span style=&quot;font-family: &amp;quot;.Times LT MM&amp;quot;; font-size: 16pt; color: rgb(69, 69, 69);&quot;&gt;&lt;br&gt;&lt;/span&gt;&lt;/p&gt;&lt;p style=&quot;font-size: medium; margin: 0px; line-height: 1px;&quot; align=&quot;center&quot;&gt;&lt;span style=&quot;font-family: &amp;quot;.Times LT MM&amp;quot;; font-size: 16pt; color: rgb(69, 69, 69);&quot;&gt;&lt;br&gt;&lt;/span&gt;&lt;/p&gt;&lt;p style=&quot;font-size: medium; margin: 0px; line-height: 1px;&quot; align=&quot;center&quot;&gt;&lt;span style=&quot;font-family: &amp;quot;.Times LT MM&amp;quot;; font-size: 16pt; color: rgb(69, 69, 69);&quot;&gt;&lt;br&gt;&lt;/span&gt;&lt;/p&gt;&lt;p style=&quot;font-size: medium; margin: 0px; line-height: 1px;&quot; align=&quot;center&quot;&gt;&lt;span style=&quot;font-family: &amp;quot;.Times LT MM&amp;quot;; font-size: 16pt; color: rgb(69, 69, 69);&quot;&gt;&lt;br&gt;&lt;/span&gt;&lt;/p&gt;&lt;p style=&quot;font-size: medium; margin: 0px; line-height: 1px;&quot; align=&quot;center&quot;&gt;&lt;span style=&quot;font-family: &amp;quot;.Times LT MM&amp;quot;; font-size: 16pt; color: rgb(69, 69, 69);&quot;&gt;&lt;br&gt;&lt;/span&gt;&lt;/p&gt;&lt;p style=&quot;font-size: medium; margin: 0px; line-height: 1px;&quot; align=&quot;center&quot;&gt;&lt;span style=&quot;font-family: &amp;quot;.Times LT MM&amp;quot;; font-size: 16pt; color: rgb(69, 69, 69);&quot;&gt;&lt;br&gt;&lt;/span&gt;&lt;/p&gt;&lt;p style=&quot;font-size: medium; margin: 0px; line-height: 1px;&quot; align=&quot;center&quot;&gt;&lt;span style=&quot;font-family: &amp;quot;.Times LT MM&amp;quot;; font-size: 16pt; color: rgb(69, 69, 69);&quot;&gt;&lt;br&gt;&lt;/span&gt;&lt;/p&gt;&lt;p style=&quot;font-size: medium; margin: 0px; line-height: 1px;&quot; align=&quot;center&quot;&gt;&lt;span style=&quot;font-family: &amp;quot;.Times LT MM&amp;quot;; font-size: 16pt; color: rgb(69, 69, 69);&quot;&gt;&lt;br&gt;&lt;/span&gt;&lt;/p&gt;&lt;p style=&quot;font-size: medium; margin: 0px; line-height: 1px;&quot; align=&quot;center&quot;&gt;&lt;span style=&quot;font-family: &amp;quot;.Times LT MM&amp;quot;; font-size: 16pt; color: rgb(69, 69, 69);&quot;&gt;&lt;br&gt;&lt;/span&gt;&lt;/p&gt;&lt;p style=&quot;font-size: medium; margin: 0px; line-height: 1px;&quot; align=&quot;center&quot;&gt;&lt;span style=&quot;font-family: &amp;quot;.Times LT MM&amp;quot;; font-size: 16pt; color: rgb(69, 69, 69);&quot;&gt;알고리즘 구상 및 추출&lt;/span&gt;&lt;/p&gt;" style="shape=step;perimeter=stepPerimeter;whiteSpace=wrap;html=1;fixedSize=1;fillColor=#fad9d5;strokeColor=#ae4132;" vertex="1" parent="1">
          <mxGeometry x="597" y="320" width="280" height="120" as="geometry" />
        </mxCell>
        <mxCell id="VXZKSgoOHZvKYw1qHndZ-11" value="&lt;p style=&quot;font-size: medium; margin: 0px; line-height: 1px;&quot; align=&quot;center&quot;&gt;&lt;span style=&quot;font-family: &amp;quot;.Times LT MM&amp;quot;; font-size: 16pt; color: rgb(69, 69, 69);&quot;&gt;6월&lt;/span&gt;&lt;/p&gt;&lt;p style=&quot;font-size: medium; margin: 0px; line-height: 1px;&quot; align=&quot;center&quot;&gt;&lt;span style=&quot;font-family: &amp;quot;.Times LT MM&amp;quot;; font-size: 16pt; color: rgb(69, 69, 69);&quot;&gt;&lt;br&gt;&lt;/span&gt;&lt;/p&gt;&lt;p style=&quot;font-size: medium; margin: 0px; line-height: 1px;&quot; align=&quot;center&quot;&gt;&lt;span style=&quot;font-family: &amp;quot;.Times LT MM&amp;quot;; font-size: 16pt; color: rgb(69, 69, 69);&quot;&gt;&lt;br&gt;&lt;/span&gt;&lt;/p&gt;&lt;p style=&quot;font-size: medium; margin: 0px; line-height: 1px;&quot; align=&quot;center&quot;&gt;&lt;span style=&quot;font-family: &amp;quot;.Times LT MM&amp;quot;; font-size: 16pt; color: rgb(69, 69, 69);&quot;&gt;&lt;br&gt;&lt;/span&gt;&lt;/p&gt;&lt;p style=&quot;font-size: medium; margin: 0px; line-height: 1px;&quot; align=&quot;center&quot;&gt;&lt;span style=&quot;font-family: &amp;quot;.Times LT MM&amp;quot;; font-size: 16pt; color: rgb(69, 69, 69);&quot;&gt;&lt;br&gt;&lt;/span&gt;&lt;/p&gt;&lt;p style=&quot;font-size: medium; margin: 0px; line-height: 1px;&quot; align=&quot;center&quot;&gt;&lt;span style=&quot;font-family: &amp;quot;.Times LT MM&amp;quot;; font-size: 16pt; color: rgb(69, 69, 69);&quot;&gt;&lt;br&gt;&lt;/span&gt;&lt;/p&gt;&lt;p style=&quot;font-size: medium; margin: 0px; line-height: 1px;&quot; align=&quot;center&quot;&gt;&lt;span style=&quot;font-family: &amp;quot;.Times LT MM&amp;quot;; font-size: 16pt; color: rgb(69, 69, 69);&quot;&gt;&lt;br&gt;&lt;/span&gt;&lt;/p&gt;&lt;p style=&quot;font-size: medium; margin: 0px; line-height: 1px;&quot; align=&quot;center&quot;&gt;&lt;span style=&quot;font-family: &amp;quot;.Times LT MM&amp;quot;; font-size: 16pt; color: rgb(69, 69, 69);&quot;&gt;&lt;br&gt;&lt;/span&gt;&lt;/p&gt;&lt;p style=&quot;font-size: medium; margin: 0px; line-height: 1px;&quot; align=&quot;center&quot;&gt;&lt;span style=&quot;font-family: &amp;quot;.Times LT MM&amp;quot;; font-size: 16pt; color: rgb(69, 69, 69);&quot;&gt;&lt;br&gt;&lt;/span&gt;&lt;/p&gt;&lt;p style=&quot;font-size: medium; margin: 0px; line-height: 1px;&quot; align=&quot;center&quot;&gt;&lt;span style=&quot;font-family: &amp;quot;.Times LT MM&amp;quot;; font-size: 16pt; color: rgb(69, 69, 69);&quot;&gt;&lt;br&gt;&lt;/span&gt;&lt;/p&gt;&lt;p style=&quot;font-size: medium; margin: 0px; line-height: 1px;&quot; align=&quot;center&quot;&gt;&lt;span style=&quot;font-family: &amp;quot;.Times LT MM&amp;quot;; font-size: 16pt; color: rgb(69, 69, 69);&quot;&gt;&lt;br&gt;&lt;/span&gt;&lt;/p&gt;&lt;p style=&quot;font-size: medium; margin: 0px; line-height: 1px;&quot; align=&quot;center&quot;&gt;&lt;span style=&quot;font-family: &amp;quot;.Times LT MM&amp;quot;; font-size: 16pt; color: rgb(69, 69, 69);&quot;&gt;임계값을 통한 낙상 감지&amp;nbsp;&lt;/span&gt;&lt;/p&gt;&lt;p style=&quot;font-size: medium; margin: 0px; line-height: 1px;&quot; align=&quot;center&quot;&gt;&lt;span style=&quot;font-family: &amp;quot;.Times LT MM&amp;quot;; font-size: 16pt; color: rgb(69, 69, 69);&quot;&gt;&lt;br&gt;&lt;/span&gt;&lt;/p&gt;&lt;p style=&quot;font-size: medium; margin: 0px; line-height: 1px;&quot; align=&quot;center&quot;&gt;&lt;span style=&quot;font-family: &amp;quot;.Times LT MM&amp;quot;; font-size: 16pt; color: rgb(69, 69, 69);&quot;&gt;&lt;br&gt;&lt;/span&gt;&lt;/p&gt;&lt;p style=&quot;font-size: medium; margin: 0px; line-height: 1px;&quot; align=&quot;center&quot;&gt;&lt;span style=&quot;font-family: &amp;quot;.Times LT MM&amp;quot;; font-size: 16pt; color: rgb(69, 69, 69);&quot;&gt;&lt;br&gt;&lt;/span&gt;&lt;/p&gt;&lt;p style=&quot;font-size: medium; margin: 0px; line-height: 1px;&quot; align=&quot;center&quot;&gt;&lt;span style=&quot;font-family: &amp;quot;.Times LT MM&amp;quot;; font-size: 16pt; color: rgb(69, 69, 69);&quot;&gt;&lt;br&gt;&lt;/span&gt;&lt;/p&gt;&lt;p style=&quot;font-size: medium; margin: 0px; line-height: 1px;&quot; align=&quot;center&quot;&gt;&lt;span style=&quot;font-family: &amp;quot;.Times LT MM&amp;quot;; font-size: 16pt; color: rgb(69, 69, 69);&quot;&gt;&lt;br&gt;&lt;/span&gt;&lt;/p&gt;&lt;p style=&quot;font-size: medium; margin: 0px; line-height: 1px;&quot; align=&quot;center&quot;&gt;&lt;span style=&quot;font-family: &amp;quot;.Times LT MM&amp;quot;; font-size: 16pt; color: rgb(69, 69, 69);&quot;&gt;&lt;br&gt;&lt;/span&gt;&lt;/p&gt;&lt;p style=&quot;font-size: medium; margin: 0px; line-height: 1px;&quot; align=&quot;center&quot;&gt;&lt;span style=&quot;font-family: &amp;quot;.Times LT MM&amp;quot;; font-size: 16pt; color: rgb(69, 69, 69);&quot;&gt;&lt;br&gt;&lt;/span&gt;&lt;/p&gt;&lt;p style=&quot;font-size: medium; margin: 0px; line-height: 1px;&quot; align=&quot;center&quot;&gt;&lt;span style=&quot;font-family: &amp;quot;.Times LT MM&amp;quot;; font-size: 16pt; color: rgb(69, 69, 69);&quot;&gt;&lt;br&gt;&lt;/span&gt;&lt;/p&gt;&lt;p style=&quot;font-size: medium; margin: 0px; line-height: 1px;&quot; align=&quot;center&quot;&gt;&lt;span style=&quot;font-family: &amp;quot;.Times LT MM&amp;quot;; font-size: 16pt; color: rgb(69, 69, 69);&quot;&gt;&lt;br&gt;&lt;/span&gt;&lt;/p&gt;&lt;p style=&quot;margin: 0px; line-height: 1px;&quot; align=&quot;center&quot;&gt;&lt;font face=&quot;.Times LT MM&quot; color=&quot;#454545&quot;&gt;&lt;span style=&quot;font-size: 21.3333px;&quot;&gt;알고리즘 구축&lt;/span&gt;&lt;/font&gt;&lt;/p&gt;" style="shape=step;perimeter=stepPerimeter;whiteSpace=wrap;html=1;fixedSize=1;fillColor=#b0e3e6;strokeColor=#0e8088;" vertex="1" parent="1">
          <mxGeometry x="867" y="320" width="280" height="120" as="geometry" />
        </mxCell>
        <mxCell id="VXZKSgoOHZvKYw1qHndZ-12" value="&lt;p style=&quot;font-size: medium; margin: 0px; line-height: 1px;&quot; align=&quot;center&quot;&gt;&lt;span style=&quot;font-family: &amp;quot;.Times LT MM&amp;quot;; font-size: 16pt; color: rgb(69, 69, 69);&quot;&gt;7월&lt;/span&gt;&lt;/p&gt;&lt;p style=&quot;font-size: medium; margin: 0px; line-height: 1px;&quot; align=&quot;center&quot;&gt;&lt;span style=&quot;font-family: &amp;quot;.Times LT MM&amp;quot;; font-size: 16pt; color: rgb(69, 69, 69);&quot;&gt;&lt;br&gt;&lt;/span&gt;&lt;/p&gt;&lt;p style=&quot;font-size: medium; margin: 0px; line-height: 1px;&quot; align=&quot;center&quot;&gt;&lt;span style=&quot;font-family: &amp;quot;.Times LT MM&amp;quot;; font-size: 16pt; color: rgb(69, 69, 69);&quot;&gt;&lt;br&gt;&lt;/span&gt;&lt;/p&gt;&lt;p style=&quot;font-size: medium; margin: 0px; line-height: 1px;&quot; align=&quot;center&quot;&gt;&lt;span style=&quot;font-family: &amp;quot;.Times LT MM&amp;quot;; font-size: 16pt; color: rgb(69, 69, 69);&quot;&gt;&lt;br&gt;&lt;/span&gt;&lt;/p&gt;&lt;p style=&quot;font-size: medium; margin: 0px; line-height: 1px;&quot; align=&quot;center&quot;&gt;&lt;span style=&quot;font-family: &amp;quot;.Times LT MM&amp;quot;; font-size: 16pt; color: rgb(69, 69, 69);&quot;&gt;&lt;br&gt;&lt;/span&gt;&lt;/p&gt;&lt;p style=&quot;font-size: medium; margin: 0px; line-height: 1px;&quot; align=&quot;center&quot;&gt;&lt;span style=&quot;font-family: &amp;quot;.Times LT MM&amp;quot;; font-size: 16pt; color: rgb(69, 69, 69);&quot;&gt;&lt;br&gt;&lt;/span&gt;&lt;/p&gt;&lt;p style=&quot;font-size: medium; margin: 0px; line-height: 1px;&quot; align=&quot;center&quot;&gt;&lt;span style=&quot;font-family: &amp;quot;.Times LT MM&amp;quot;; font-size: 16pt; color: rgb(69, 69, 69);&quot;&gt;&lt;br&gt;&lt;/span&gt;&lt;/p&gt;&lt;p style=&quot;font-size: medium; margin: 0px; line-height: 1px;&quot; align=&quot;center&quot;&gt;&lt;span style=&quot;font-family: &amp;quot;.Times LT MM&amp;quot;; font-size: 16pt; color: rgb(69, 69, 69);&quot;&gt;&lt;br&gt;&lt;/span&gt;&lt;/p&gt;&lt;p style=&quot;font-size: medium; margin: 0px; line-height: 1px;&quot; align=&quot;center&quot;&gt;&lt;span style=&quot;font-family: &amp;quot;.Times LT MM&amp;quot;; font-size: 16pt; color: rgb(69, 69, 69);&quot;&gt;&lt;br&gt;&lt;/span&gt;&lt;/p&gt;&lt;p style=&quot;font-size: medium; margin: 0px; line-height: 1px;&quot; align=&quot;center&quot;&gt;&lt;span style=&quot;font-family: &amp;quot;.Times LT MM&amp;quot;; font-size: 16pt; color: rgb(69, 69, 69);&quot;&gt;&lt;br&gt;&lt;/span&gt;&lt;/p&gt;&lt;p style=&quot;font-size: medium; margin: 0px; line-height: 1px;&quot; align=&quot;center&quot;&gt;&lt;span style=&quot;font-family: &amp;quot;.Times LT MM&amp;quot;; font-size: 16pt; color: rgb(69, 69, 69);&quot;&gt;&lt;br&gt;&lt;/span&gt;&lt;/p&gt;&lt;p style=&quot;font-size: medium; margin: 0px; line-height: 1px;&quot; align=&quot;center&quot;&gt;&lt;span style=&quot;font-family: &amp;quot;.Times LT MM&amp;quot;; font-size: 16pt; color: rgb(69, 69, 69);&quot;&gt;일상생활 및 낙상 Dataset에&amp;nbsp;&lt;/span&gt;&lt;/p&gt;&lt;p style=&quot;font-size: medium; margin: 0px; line-height: 1px;&quot; align=&quot;center&quot;&gt;&lt;span style=&quot;font-family: &amp;quot;.Times LT MM&amp;quot;; font-size: 16pt; color: rgb(69, 69, 69);&quot;&gt;&lt;br&gt;&lt;/span&gt;&lt;/p&gt;&lt;p style=&quot;font-size: medium; margin: 0px; line-height: 1px;&quot; align=&quot;center&quot;&gt;&lt;span style=&quot;font-family: &amp;quot;.Times LT MM&amp;quot;; font-size: 16pt; color: rgb(69, 69, 69);&quot;&gt;&lt;br&gt;&lt;/span&gt;&lt;/p&gt;&lt;p style=&quot;font-size: medium; margin: 0px; line-height: 1px;&quot; align=&quot;center&quot;&gt;&lt;span style=&quot;font-family: &amp;quot;.Times LT MM&amp;quot;; font-size: 16pt; color: rgb(69, 69, 69);&quot;&gt;&lt;br&gt;&lt;/span&gt;&lt;/p&gt;&lt;p style=&quot;font-size: medium; margin: 0px; line-height: 1px;&quot; align=&quot;center&quot;&gt;&lt;span style=&quot;font-family: &amp;quot;.Times LT MM&amp;quot;; font-size: 16pt; color: rgb(69, 69, 69);&quot;&gt;&lt;br&gt;&lt;/span&gt;&lt;/p&gt;&lt;p style=&quot;font-size: medium; margin: 0px; line-height: 1px;&quot; align=&quot;center&quot;&gt;&lt;span style=&quot;font-family: &amp;quot;.Times LT MM&amp;quot;; font-size: 16pt; color: rgb(69, 69, 69);&quot;&gt;&lt;br&gt;&lt;/span&gt;&lt;/p&gt;&lt;p style=&quot;font-size: medium; margin: 0px; line-height: 1px;&quot; align=&quot;center&quot;&gt;&lt;span style=&quot;font-family: &amp;quot;.Times LT MM&amp;quot;; font-size: 16pt; color: rgb(69, 69, 69);&quot;&gt;&lt;br&gt;&lt;/span&gt;&lt;/p&gt;&lt;p style=&quot;font-size: medium; margin: 0px; line-height: 1px;&quot; align=&quot;center&quot;&gt;&lt;span style=&quot;font-family: &amp;quot;.Times LT MM&amp;quot;; font-size: 16pt; color: rgb(69, 69, 69);&quot;&gt;&lt;br&gt;&lt;/span&gt;&lt;/p&gt;&lt;p style=&quot;font-size: medium; margin: 0px; line-height: 1px;&quot; align=&quot;center&quot;&gt;&lt;span style=&quot;font-family: &amp;quot;.Times LT MM&amp;quot;; font-size: 16pt; color: rgb(69, 69, 69);&quot;&gt;&lt;br&gt;&lt;/span&gt;&lt;/p&gt;&lt;p style=&quot;font-size: medium; margin: 0px; line-height: 1px;&quot; align=&quot;center&quot;&gt;&lt;span style=&quot;font-family: &amp;quot;.Times LT MM&amp;quot;; font-size: 16pt; color: rgb(69, 69, 69);&quot;&gt;&lt;br&gt;&lt;/span&gt;&lt;/p&gt;&lt;p style=&quot;margin: 0px; line-height: 1px;&quot; align=&quot;center&quot;&gt;&lt;font face=&quot;.Times LT MM&quot; color=&quot;#454545&quot;&gt;&lt;span style=&quot;font-size: 21.3333px;&quot;&gt;따른 각 모션 Time-domain&lt;/span&gt;&lt;/font&gt;&lt;/p&gt;&lt;p style=&quot;margin: 0px; line-height: 1px;&quot; align=&quot;center&quot;&gt;&lt;br&gt;&lt;/p&gt;&lt;p style=&quot;margin: 0px; line-height: 1px;&quot; align=&quot;center&quot;&gt;&lt;br&gt;&lt;/p&gt;&lt;p style=&quot;margin: 0px; line-height: 1px;&quot; align=&quot;center&quot;&gt;&lt;br&gt;&lt;/p&gt;&lt;p style=&quot;margin: 0px; line-height: 1px;&quot; align=&quot;center&quot;&gt;&lt;br&gt;&lt;/p&gt;&lt;p style=&quot;margin: 0px; line-height: 1px;&quot; align=&quot;center&quot;&gt;&lt;br&gt;&lt;/p&gt;&lt;p style=&quot;margin: 0px; line-height: 1px;&quot; align=&quot;center&quot;&gt;&lt;br&gt;&lt;/p&gt;&lt;p style=&quot;margin: 0px; line-height: 1px;&quot; align=&quot;center&quot;&gt;&lt;br&gt;&lt;/p&gt;&lt;p style=&quot;margin: 0px; line-height: 1px;&quot; align=&quot;center&quot;&gt;&lt;br&gt;&lt;/p&gt;&lt;p style=&quot;margin: 0px; line-height: 1px;&quot; align=&quot;center&quot;&gt;&lt;br&gt;&lt;/p&gt;&lt;p style=&quot;margin: 0px; line-height: 1px;&quot; align=&quot;center&quot;&gt;&lt;br&gt;&lt;/p&gt;&lt;p style=&quot;margin: 0px; line-height: 1px;&quot; align=&quot;center&quot;&gt;&lt;br&gt;&lt;/p&gt;&lt;p style=&quot;margin: 0px; line-height: 1px;&quot; align=&quot;center&quot;&gt;&lt;br&gt;&lt;/p&gt;&lt;p style=&quot;margin: 0px; line-height: 1px;&quot; align=&quot;center&quot;&gt;&lt;br&gt;&lt;/p&gt;&lt;p style=&quot;margin: 0px; line-height: 1px;&quot; align=&quot;center&quot;&gt;&lt;br&gt;&lt;/p&gt;&lt;p style=&quot;margin: 0px; line-height: 1px;&quot; align=&quot;center&quot;&gt;&lt;br&gt;&lt;/p&gt;&lt;p style=&quot;margin: 0px; line-height: 1px;&quot; align=&quot;center&quot;&gt;&lt;br&gt;&lt;/p&gt;&lt;p style=&quot;margin: 0px; line-height: 1px;&quot; align=&quot;center&quot;&gt;&lt;br&gt;&lt;/p&gt;&lt;p style=&quot;margin: 0px; line-height: 1px;&quot; align=&quot;center&quot;&gt;&lt;br&gt;&lt;/p&gt;&lt;p style=&quot;margin: 0px; line-height: 1px;&quot; align=&quot;center&quot;&gt;&lt;br&gt;&lt;/p&gt;&lt;p style=&quot;margin: 0px; line-height: 1px;&quot; align=&quot;center&quot;&gt;&lt;br&gt;&lt;/p&gt;&lt;p style=&quot;margin: 0px; line-height: 1px;&quot; align=&quot;center&quot;&gt;&lt;font color=&quot;#454545&quot;&gt;&lt;span style=&quot;font-size: 21.3333px;&quot;&gt;패턴 분석 후 알고리즘 수정&lt;/span&gt;&lt;/font&gt;&lt;/p&gt;" style="shape=step;perimeter=stepPerimeter;whiteSpace=wrap;html=1;fixedSize=1;fillColor=#b1ddf0;strokeColor=#10739e;" vertex="1" parent="1">
          <mxGeometry x="1137" y="320" width="280" height="120" as="geometry" />
        </mxCell>
      </root>
    </mxGraphModel>
  </diagram>
</mxfile>
